<svg id="Ebene_1" data-name="Ebene 1" xmlns="http://www.w3.org/2000/svg" viewBox="0 0 280.7849 97.7275"><title>palm-leave-white</title><path d="M24.9531,55.0356a47.3222,47.3222,0,0,1,.5845-5.478l.2236-1.2646c.2046-1.08.3692-2.0039.4942-2.72.146-.9058-.0235-1.441-.5025-1.5943l-.27-.0381a1.01,1.01,0,0,0-.8252.5342l-.0635.1182c-.3408.7016-.8379,1.7426-1.4287,3.0332-.28.6133-.5835,1.2734-.9,1.9546a5.9975,5.9975,0,0,0-.3652.8979A36.5978,36.5978,0,0,0,20.1777,55.75a24.05,24.05,0,0,0-.583,6.3447c.0259.2915.06.6016.1089.9473l.0386.2642c.0259.14.0454.2724.0654.4077a12.1936,12.1936,0,0,0,.9077,3.0781l.0923.1787c.0547.1069.1109.2158.1519.2891a5.0043,5.0043,0,0,0,.9336,1.2246c.1025.1054.2.2055.33.3545a4.1708,4.1708,0,0,0,2.43,1.11h0a1.7887,1.7887,0,0,0,.585-.1133c.8535-.416,1.312-1.5,1.3223-3.1625-.0181-.4068-.0406-.8267-.0816-1.2916a15.0821,15.0821,0,0,0-.4766-2.6669l.004-.0206-.0406-.1284A27.4092,27.4092,0,0,1,24.92,56.26c-.0078-.2471-.0127-.4961-.0117-.7085Z" transform="translate(0.4835 -0.2322)" fill="#fff"/><path d="M206.2852,74.8745a3.8241,3.8241,0,0,0-.0533-.4023,1.8219,1.8219,0,0,0-1.0839-1.376c-1.1324-.3936-2.0381,1.1416-2.0381,1.1416a4.9062,4.9062,0,0,1-3.2144,1.8008c-.0806.019-.1665.0322-.25.0493a12.2173,12.2173,0,0,1-1.543.1894c-.1211.0064-.2407.0147-.3632.0186-.0557.002-.1148.0024-.1714.0039a27.6613,27.6613,0,0,1-5.252-.51c-1.4536-.2793-2.9365-.6333-4.5278-1.09-.58-.165-1.1807-.3457-1.7959-.5337l-1.7822-.55c-.06-.0185-.1153-.0356-.1749-.0542l-5.2626-1.7549-.003.0025a171.84,171.84,0,0,0-16.9717-5.36,21.7932,21.7932,0,0,0-3.4448-.6553,8.0208,8.0208,0,0,0-2.2734-.039,5.7944,5.7944,0,0,0-4.7525,2.6113l-.3413.55.6075.2231c2.4028.8882,3.6176,2.6177,3.03,4.2847-.2426.6143-1.1875,2.0752-4.7182,2.3838l-.6377.0269-2.044-.0479c-.2109-.0181-.4385-.0342-.7622-.0581-.5234-.0371-1.0381-.082-1.6147-.1606l-.3457-.0406a47.305,47.305,0,0,1-6.4908-1.42c-.8032-.2246-1.645-.47-2.5107-.7236l-1.1279-.3355c-.4312-.1264-8.8032-3.1884-14.3159-5.2094-.5415-.21-1.0874-.41-1.608-.5914l-.1245-.0439a23.02,23.02,0,0,0-7.2915-1.4849c-2.6538,0-4.5517.89-5.64,2.647l-.3418.55.6064.2231a4.7519,4.7519,0,0,1,3.02,2.5923,2.6332,2.6332,0,0,1-.2632,2.29,3.55,3.55,0,0,1-2.2622,1.7407c-.0191.0054-.0371.0122-.0567.0171-.165.0483-.3554.0815-.5434.1162a7.8789,7.8789,0,0,1-1.0938.1011,23.313,23.313,0,0,1-2.6845-.2124c-.9791-.1358-2.2124-.3408-3.6265-.5781a114.1263,114.1263,0,0,0-18.1587-1.9634,32.0976,32.0976,0,0,0-8.4956.9726,1.8317,1.8317,0,0,0-.895.542.4148.4148,0,0,0-.0274.0386,1.0208,1.0208,0,0,0-.1894.5635,1.1026,1.1026,0,0,0,1.125,1.0781l.5425-.0742.0253.0019.1456-.0239c.3017-.0464.6318-.0952,1.0053-.14.1758-.0254.3491-.0435.52-.0635l.32-.041a41.241,41.241,0,0,1,4.373-.2588c4.1685,0,7.5752.874,13.7573,2.4624,1.148.2954,2.3946.6152,3.76.96.1211.0307.2407.0532.3618.0825v.0068s.55.1323,1.39.3106c.0678.0141.1362.03.2041.0434a44.5988,44.5988,0,0,0,6.1279.917l.0015,0c.2568.0191.5151.0362.7729.0484l-.0005.0029c.0474.0024.0938.002.1406.0039.1709.0068.34.0112.5088.0142.07.0009.1411.0058.211.0058l.021-.001a11.9,11.9,0,0,0,1.7822-.1044c.1411-.021.2676-.043.3916-.0645a12.0707,12.0707,0,0,0,2.1538-.5127c.2378-.0908.4678-.186.686-.2847a11.5086,11.5086,0,0,0,2.9258-1.8935l.4453-.42c.0728-.0723.1382-.126.2085-.1919l-.0029-.0064,1.04-.9424c.7349-.7832,3.9468-3.2763,13.34-.375l.0015-.0024.2236.07c.03.0093.06.0186.09.0283l6.1739,1.9405.0048.0039c.3516.1093.69.2133,1.0528.3271l.2324.0718c1.03.3188,2.104.6523,3.2192.9873a66.13,66.13,0,0,0,8.5909,2.0488c1.1713.2114,2.2954.3189,3.437.43l1.4941.07a39.15,39.15,0,0,0,4.3731-.0727c.3613-.0357.7226-.0713,1.0576-.1255.0312-.0049.061-.0108.0918-.0156a11.2472,11.2472,0,0,0,2.4824-.6871A6.7609,6.7609,0,0,0,164.41,78.165c.831-1.6064,2.352-2.2465,5.4419-2.2978a31.8,31.8,0,0,1,7.205.5923l3.2779.7358c.0635.0166.125.03.1885.0474.3266.0737.6347.1391.9536.209l.5869.1318.1987.04q1.391.2974,2.6758.5445l.2065.0419h.0171c18.4073,3.5069,21.0406-.5083,21.1363-2.8891V75.313A3.2023,3.2023,0,0,0,206.2852,74.8745Z" transform="translate(0.4835 -0.2322)" fill="#fff"/><path d="M210.8433,3.8867a1.0449,1.0449,0,0,0-.1377-.1225,2.0509,2.0509,0,0,0-1.08-.3306l-.1611-.0039c-1.8223-.0361-3.6705-.0361-5.4942,0a121.6417,121.6417,0,0,0-14.8535,1.1411c-1.9775.3027-3.96.6626-5.9893,1.0894-1.0473.2216-2.038.4467-2.9555.6733a156.2843,156.2843,0,0,0-33.33,12.0732l-.13.0743c-1.0185.4868-1.8457.9057-2.5933,1.3154a68.7993,68.7993,0,0,0-7.3129,4.5527c-2.21,1.499-4.1539,3.0635-6.12,4.6675-1.57,1.3247-3.1416,2.75-4.8129,4.3652-1.2745,1.2862-2.4957,2.5357-3.4273,3.647-.2026.2305-.3926.4546-.5781.6719a4.9757,4.9757,0,0,0-1.1006,2.0034,1.2069,1.2069,0,0,0,.313,1.0713c.0083.0058.0146.0151.0239.0229a1.3457,1.3457,0,0,0,.689.2827l.07.0059c.0869.0078.1792.0152.2788.0152l.0986.0039a5.1164,5.1164,0,0,0,.878-.0992c2.1762-.4218,8.7651-2.4921,26.2939-12.3745q1.188-.7038,2.4058-1.4048c1.6762-.9775,3.4126-1.9863,5.122-3.0625,2.4981-1.5083,5.06-2.8759,7.8858-4.3686,1.0044-.46,2.0058-.938,3.0053-1.4136,1.7051-.8149,3.4668-1.6553,5.1958-2.3779,1.12-.4351,2.22-.91,3.3116-1.3828,1.6577-.7178,3.2226-1.3941,4.8325-1.9258.6377-.2163,1.2681-.4439,1.9336-.6856a144.1412,144.1412,0,0,1,22.331-5.8134c.5508-.0684,1.08-.1353,1.5406-.2115l2.6093-.354c.0616-.0088,1.5225-.2343,1.4756-1.1889a.9038.9038,0,0,0-.2065-.5435Z" transform="translate(0.4835 -0.2322)" fill="#fff"/><path d="M252.4194,22.9976a.5731.5731,0,0,0-.0532-.1172,1.4692,1.4692,0,0,0-.8218-.6143,3.7972,3.7972,0,0,0-.6123-.15l-.0014,0a137.8972,137.8972,0,0,0-20.5381-2.39c-1.8091-.0464-3.6221-.0537-5.3833-.02l-.8487.021c-1.0917.0293-2.1289.0713-3.0981.1236A177.0512,177.0512,0,0,0,189.27,24.47l-.01.002c-2.5733.5884-5.086,1.309-6.45,1.7163l-.0162.0044c-.2431.0727-.4472.1343-.61.184l-.0142.0044-.0024,0c-.26.08-.4082.1265-.4082.1265l.01.002a73.9174,73.9174,0,0,0-7.8549,2.91c-2.5484,1.0488-4.8907,2.23-7.0777,3.3535-1.8227.9683-3.6865,2.0445-5.71,3.294-1.7891,1.1592-3.1133,2.0429-4.1675,2.8515-.2539.1866-.4888.3618-.7158.5381-1.291,1.0069-1.8233,1.8618-1.5816,2.543.2745.77,1.3135.8389,2.0728.8237.1186-.0024.2573-.0132.39-.021.3892-.0459,1.3614-.1723,2.6324-.4223.038-.0079.0717-.0142.11-.0225.0513-.01.1069-.0225.16-.0332,2.4624-.5093,5.7471-1.2715,10.1992-2.3687,1.5083-.3564,3.0518-.77,4.686-1.2133.8745-.2334,1.7671-.4732,2.68-.7105,1.27-.3257,2.5513-.7046,3.9512-1.1245.979-.2461,1.9673-.5557,2.9233-.8535.4-.125.8013-.2515,1.2271-.3819q1.3029-.446,2.6333-.8925c1.9038-.6387,3.8691-1.3028,5.8252-2.0332,2.3066-.8145,4.6694-1.5435,7.1958-2.2949.3842-.105,2.9209-.794,4.4526-1.1817.0186-.0049.0308-.0093.0483-.0137.1382-.0351.2759-.0683.4141-.103,1.8721-.4756,3.81-.9653,5.6909-1.35.6753-.123,1.3462-.2588,2.0147-.3989v.0009S219.9077,26.1885,224,25.6a167.9087,167.9087,0,0,1,18.22-1.5039c1.4951-.03,2.9321-.0254,4.2573.0088.5645.0283,1.106.0561,1.5865.06l2.7646.1172c.958-.018,1.5347-.3305,1.6221-.876a.8607.8607,0,0,0-.0322-.3891C252.417,23.01,252.4209,23.0054,252.4194,22.9976Z" transform="translate(0.4835 -0.2322)" fill="#fff"/><path d="M272.6226,46.58a.83.83,0,0,0-.0581-.1353l-.087-.1328a1.4094,1.4094,0,0,0-.5971-.4121l-3.5679-1.3056a112.3794,112.3794,0,0,0-11.3506-3.1954l-1.022-.2412a135.8632,135.8632,0,0,0-32.0883-3.4013c-1.6114.0312-3.0415.0942-4.2876.17l.0005-.0005a77.98,77.98,0,0,0-12.0581,1.56l-.0206.004c-.1694.0336-.33.0678-.496.1015-.2022.0415-.399.08-.6045.1236l-.0332.0073c-1.2217.2578-2.3492.522-3.3643.7788l-.083.019-.0669.0191c-3.5234.8979-5.6606,1.6816-5.6606,1.6816l.0014.002c-.5771.2-1.1348.4-1.6572.59-.3862.14-.7632.2788-1.1514.416-1.2656.5093-2.3486.9512-3.27,1.3677a9.0975,9.0975,0,0,0-2.4429,1.4492,1.3289,1.3289,0,0,0-.4443,1.2114c.1431.5381.7036.7623,1.3086.8628a10.7769,10.7769,0,0,0,1.95.01c2.0928-.1186,4.9077-.3433,8.1611-.6016l1.5694-.125c1.0991-.1,2.2456-.2,3.4316-.3027,3.105-.2651,6.6235-.5688,10.2251-.9951,1.8086-.1992,3.6147-.4526,5.5283-.7192l2.1021-.2925,1.6743-.1861c2.04-.2338,4.1479-.4751,6.2407-.5571,2.6856-.1684,5.2949-.3188,7.9473-.2891q1.1118-.0036,2.2012-.0126v0s3.8095.0664,5.6733.1685A173.2462,173.2462,0,0,1,269.22,47.2651l1.9756.438a1.9575,1.9575,0,0,0,.438.0479,1.0041,1.0041,0,0,0,.9927-.687A.7753.7753,0,0,0,272.6226,46.58Z" transform="translate(0.4835 -0.2322)" fill="#fff"/><path d="M280.2031,75.3643a1.3615,1.3615,0,0,0-.105-.23,11.9781,11.9781,0,0,0-1.7739-2.1094l-.0005.0029c-.7744-.8476-1.8525-1.8584-2.8291-2.728-.73-.6719-1.4716-1.3081-2.2182-1.917-.0747-.0645-.1275-.1094-.1275-.1094l-.0034.002a61.0133,61.0133,0,0,0-14.1435-8.4634l-.0113-.0059C254.5,57.6631,246.33,55.6592,246.2715,55.644l-.0015.0039a68.2856,68.2856,0,0,0-18.1343-2.4145c-.84.0146-1.6606.0547-2.4555.1191-.5987.0684-1.1738.1485-1.7237.23-.1806.0274-.3613.0547-.5336.082-.189.03-.3755.06-.5538.0894-.3828.0644-.7509.1289-1.0932.1943-1.2993.2754-2.4556.5318-3.3882.8252-.04.0113-.0737.022-.1128.0327a9.8332,9.8332,0,0,0-1.689.6944c-.5454.3349-.9682.7612-.9379,1.2812.0459.7818,1.0083,1.1182,1.7294,1.3032.3291.0835.69.1729,1.0889.271,1.9175.4756,4.606,1.0489,7.7617,1.6568,1.0049.2222,2.0591.4072,3.1519.5976.6406.1133,1.2959.2276,1.9629.3545,1.9145.3516,3.9419.6568,5.7.9131.82.0742,1.6455.1714,2.4819.2686.8037.0923,1.6289.1816,2.4595.2622l-.0044.0058s6.8545.8511,11.0664,1.8667c5.69,1.39,14.6875,4.2007,21.6045,9.2261.6.42,1.1382.8325,1.6309,1.208.3754.29.726.5571,1.0493.7866l1.1845.8882a1.4094,1.4094,0,0,0,.8877.3213.9015.9015,0,0,0,.8-1.3476Z" transform="translate(0.4835 -0.2322)" fill="#fff"/><path d="M265.3569,96.6309l-.1967-.462c-.0044-.0131-.2095-.5712-.6246-1.4257l0,.0005s-1.437-4.106-8.4448-10.4717l-.0464-.0415a57.42,57.42,0,0,0-18.7773-12.4453.0739.0739,0,0,1-.0171-.01c-.1348-.0518-.2642-.0967-.397-.15-.0845-.0307-.1689-.064-.2529-.0937a31.1861,31.1861,0,0,0-9.0156-2.0664c-.0411-.003-.0869-.004-.1407-.004-.124-.0063-.1889-.0063-.1889-.0063a1.3413,1.3413,0,0,0-1.2744.59,1.2715,1.2715,0,0,0,.2246,1.3262l.14.1724a11.3866,11.3866,0,0,0,2.11,1.6733c1.0219.6885,2.0136,1.3184,3.03,1.9336,2.376,1.4663,4.6241,2.7427,6.8765,3.9048.7832.3979,1.6035.769,2.437,1.1475.5279.2378,1.06.4809,1.6035.7368,1.1836.5229,2.4317,1.1474,4.0728,2.0381a55.87,55.87,0,0,1,11.1382,7.3877c.1723.1518.3369.2988.5014.4477l.0093.0073a26.234,26.234,0,0,1,4.6958,5.1475l-.0049.002c.11.1606.2242.3242.3228.4746l.6333.9531a1.12,1.12,0,0,0,.9267.563.8274.8274,0,0,0,.5176-.1934A.9443.9443,0,0,0,265.3569,96.6309Z" transform="translate(0.4835 -0.2322)" fill="#fff"/><path d="M54.4556,25.5635a1.0929,1.0929,0,0,0-.5152-.1162,1.2538,1.2538,0,0,0-.7729.3008l-.43.3959c-.4214.397-.9292.8765-1.5171,1.4429-7.8164,7.05-11.1494,13.0122-12.4883,16.1289l-.0009-.001-.0191.0464c-.3247.76-.5307,1.3487-.6523,1.7359a22.1531,22.1531,0,0,0-1.145,4.4858c-.0015.0147,0,.0239-.0015.0381a12.7178,12.7178,0,0,0-.0493,2.9517,10.397,10.397,0,0,0,.5063,2.3032,11.21,11.21,0,0,0,1.22,2.6416,11.9385,11.9385,0,0,0,.9336,1.1933,3.8,3.8,0,0,0,.8555.6568,2.18,2.18,0,0,0,3.1064-1.2158,5.4826,5.4826,0,0,0,.4268-1.9039c.1016-1.5751.36-3.8417.6543-5.76a43.4362,43.4362,0,0,1,3.0386-10.2217c.5522-1.28,1.1513-2.5425,1.6655-3.5845.0522-.1108.1035-.2226.1553-.333.63-1.4077,1.3354-2.7055,2.018-3.9619.2881-.5268.5679-1.041.8282-1.5386a16.3745,16.3745,0,0,1,.8506-1.4585c.1484-.2353.2895-.4619.416-.6733L54.75,27.1079A1.0913,1.0913,0,0,0,54.4556,25.5635Z" transform="translate(0.4835 -0.2322)" fill="#fff"/><path d="M87.1148,20.22l.0209-.021c.0523-.0547.11-.1167.1617-.17.0488-.0444.0952-.0854.1435-.13.5923-.5766,1.9429-1.8579,3.5547-3.18.0977-.0825.2-.1743.2954-.2514.166-.127.3076-.2378.4649-.3589.0786-.0615.1587-.1226.2378-.1836.5283-.4087,1.0214-.794,1.4257-1.124l.502-.398c1.0723-.9507.9668-1.5937.6357-2.0307a1.1133,1.1133,0,0,0-1.1294-.2486c-.1616.043-.3418.1-.5522.1743l-.8286.35c-.7315.2994-1.6206.69-2.64,1.1548-.6811.3247-1.3925.7119-2.1557,1.1275-.1739.0922-.3609.1943-.5406.29C68.7046,24.3,63.2388,35.749,63.2388,35.749a22.5524,22.5524,0,0,0-2.0664,4.2759A23.9262,23.9262,0,0,0,60.0342,44.05a20.0538,20.0538,0,0,0-.3037,6.2676c.0141.1108.03.2119.0454.3169a2.864,2.864,0,0,0,.9595,1.9394c.0312.0176.0629.0337.0942.0479a.9532.9532,0,0,0,.187.0688,1.3152,1.3152,0,0,0,.2529.0347l-.0009.0015a.6042.6042,0,0,0,.1723.0224l.0156.002.0132-.002a1.4615,1.4615,0,0,0,.3618-.0547l.001.0064s.0347-.0069.0967-.0264c.0249-.0073.0508-.018.0762-.0259.0449-.0166.101-.0405.1635-.0688.0274-.0108.0567-.0274.0845-.04l.0254-.0117a4.8691,4.8691,0,0,0,1.1231-.7246,15.1276,15.1276,0,0,0,2.08-2.0771c.0489-.0572.0826-.1045.128-.16.1176-.1377.2324-.2686.3554-.4185.042-.0468.0811-.0874.1231-.1347.0317-.0406.1733-.2237.39-.5074l.0039-.0048.0059-.0078c1.03-1.35,3.8061-5.0508,5.6743-8.1573,2.3105-3.8418,4.8184-8.0981,6.4009-10.1342l.0039-.004c.4341-.6005.91-1.2294,1.4477-1.9038.8536-1.1606,1.79-2.2573,2.6963-3.3164l.2246-.2622a27.6692,27.6692,0,0,1,2.0567-2.269c.3076-.3159.6128-.6284.9057-.9429.417-.4473.8247-.8721,1.2173-1.2832Z" transform="translate(0.4835 -0.2322)" fill="#fff"/><path d="M151.8613.8047a.9776.9776,0,0,0-.7846-.56A2.2279,2.2279,0,0,0,150.4.2788l-3.6934,1.1069h-.0024c-.0151.003-.0288.0088-.0449.0118l-2.1167.6347c-.7515.21-1.541.4815-2.35.77-18.8706,6.1392-30.4849,12.8882-36.91,17.4649-.0176.0122-.0308.02-.0483.0317A60.3522,60.3522,0,0,0,94.3853,30.1l.0068.0088c-1.165,1.314-2.3008,2.71-3.4067,4.23a47.3114,47.3114,0,0,0-2.7784,4.414,32.382,32.382,0,0,0-1.7465,3.6221c-.1993.502-.3628.9531-.4961,1.3526a2.4085,2.4085,0,0,0,.0825,1.9663,1.1657,1.1657,0,0,0,1.022.4619h0a3.6322,3.6322,0,0,0,1.5235-.4824c.4262-.2833.92-.6153,1.4707-1.001.562-.3667,1.1548-.7935,1.8013-1.2578.4755-.3423.9794-.7046,1.539-1.0918.5708-.4248,1.1826-.8643,1.8237-1.3247.7413-.5318,1.52-1.09,2.3077-1.6773.5966-.4336,1.1972-.88,1.7929-1.3252l14.336-11.9311c1.1049-.9815,2.2773-1.9273,3.4223-2.8487l1.11-.8969c1.208-.9009,2.4365-1.7857,3.6611-2.6636.7725-.5537,1.5435-1.1109,2.2842-1.6509l5.9981-3.979c2.02-1.2319,3.9653-2.4219,5.8139-3.5591,1.1558-.7344,2.3233-1.3657,3.4527-1.98.645-.353,1.2739-.6923,1.8667-1.0351.4526-.2476.8925-.4917,1.3232-.7334,1.1479-.6416,2.2324-1.2486,3.2676-1.7246l4.7348-2.3648a3.2091,3.2091,0,0,0,1.0791-.8144A1.0491,1.0491,0,0,0,151.8613.8047Z" transform="translate(0.4835 -0.2322)" fill="#fff"/><path d="M220.6738,66.0815a3.621,3.621,0,0,0-.6489-.3549l-6.8154-2.711a285.9267,285.9267,0,0,0-36.4414-10.958c-1.2984-.3115-2.97-.6777-5.0977-1.1094q-2.4514-.5053-4.8891-.9541c-.2886-.0546-.5748-.1088-.8746-.165-3.1259-.5854-6.1865-1.07-9.1679-1.478-.3008-.0425-.6016-.0825-.9024-.1236-.1977-.0263-.396-.0527-.5932-.0781-.8247-.1108-1.6494-.2241-2.4712-.3252-.8115-.0991-1.6221-.1982-2.4634-.2876l-1.6372-.1235c-2.8672-.2744-5.62-.4766-8.2388-.6216l-.6269-.0474c-.17-.0039-.3409-.01-.5108-.0141a176.528,176.528,0,0,0-25.6382.3974l.0005,0c-2.2978.1787-4.5029.3955-6.6582.6553l-5.5376.6621-5.4277.8877c-3.0552.4512-6.165,1.1274-8.91,1.7188l-1.9248.413c-2.92.6407-5.8061,1.4229-8.5991,2.18l-1.9687.53c-1.0288.3267-2.0591.6392-3.1172.9561-2.3164.6992-4.71,1.4218-6.9488,2.2617a195.7163,195.7163,0,0,0-18.6713,7.53C40.0952,67.65,34.7173,70.46,29.9077,73.2661A178.0559,178.0559,0,0,0,7.5542,88.5444c-2.4023,1.9141-4.2373,3.5323-5.8765,5.0083L0,95.1636a1.2653,1.2653,0,0,0-.44,1.2182c.1225.3711.4653.5957,1.0967.6748l.3818-.0073-.0127.0073h7.978a8.08,8.08,0,0,0,4.3072-1.518c1.6147-1.4019,3.3818-2.9019,5.6914-4.6729A170.5856,170.5856,0,0,1,40.3442,76.8306c4.6206-2.5928,9.7525-5.1695,15.25-7.6573a190.7961,190.7961,0,0,1,17.85-6.9228c2.1123-.7637,4.4014-1.4282,6.6158-2.07.9892-.2852,1.9516-.5664,2.9111-.8594l1.95-.5068c2.6538-.6914,5.4014-1.4077,8.2114-2l2.022-.4165c2.563-.5308,5.4678-1.1348,8.35-1.5425l5.0859-.8013,5.3169-.6108c5.5874-.647,11.5166-1.0108,18.6582-1.1426l2.5591-.0342c2.3047,0,4.5015.065,6.7354.1372l.3427.0093c.9937.0293,1.9786.0581,2.96.08l10.0254.7261c.8267.0835,1.5625.17,2.2944.2563Q168.4,54.7718,179.5806,57.189q6.4782,1.2414,12.896,2.8276c2.5454.6553,5.5029,1.44,8.1465,2.3223l2.7905.852c3.0971.9458,5.7715,1.7637,8.0459,2.6553l7.5761,2.7349a2.3362,2.3362,0,0,0,.7754.1127,1.4368,1.4368,0,0,0,1.4571-1.0141A1.5,1.5,0,0,0,220.6738,66.0815Z" transform="translate(0.4835 -0.2322)" fill="#fff"/></svg>